<svg xmlns="http://www.w3.org/2000/svg" viewBox="0 0 1280 320" role="img" aria-labelledby="title desc">
  <title id="title">Holoself — your context, under your control</title>
  <desc id="desc">A compact Holoself banner showing local context moving through a lens to independent AI projects, with review flowing back.</desc>
  <defs>
    <linearGradient id="background" x1="0" y1="0" x2="1" y2="1">
      <stop stop-color="#fffaf4"/>
      <stop offset="1" stop-color="#dceee3"/>
    </linearGradient>
    <linearGradient id="card" x1="0" y1="0" x2="1" y2="1">
      <stop stop-color="#245f50"/>
      <stop offset="1" stop-color="#10231d"/>
    </linearGradient>
    <filter id="shadow" x="-20%" y="-20%" width="140%" height="160%">
      <feDropShadow dx="0" dy="8" stdDeviation="10" flood-color="#10231d" flood-opacity=".12"/>
    </filter>
  </defs>

  <rect width="1280" height="320" rx="24" fill="url(#background)"/>
  <circle cx="1170" cy="18" r="176" fill="#9be5c1" opacity=".35"/>
  <circle cx="1110" cy="322" r="155" fill="#f09a62" opacity=".14"/>
  <path d="M0 254C176 196 274 294 442 246s285-49 430 4 256 49 408-13" fill="none" stroke="#9be5c1" stroke-width="3" opacity=".46"/>

  <g transform="translate(74 68)">
    <rect width="88" height="88" rx="26" fill="#10231d"/>
    <path d="M44 14c16.6 0 30 13.4 30 30S60.6 74 44 74 14 60.6 14 44 27.4 14 44 14Z" fill="none" stroke="#9be5c1" stroke-width="4" opacity=".9"/>
    <path d="M29 29v30M59 29v30M29 44h30" fill="none" stroke="#fffaf4" stroke-width="8" stroke-linecap="round"/>
    <circle cx="65" cy="23" r="6" fill="#f09a62"/>
  </g>
  <text x="74" y="208" fill="#10231d" font-family="Arial, sans-serif" font-size="54" font-weight="800" letter-spacing="-2">Your context, under your control.</text>
  <text x="76" y="249" fill="#245f50" font-family="Arial, sans-serif" font-size="24" font-weight="600">Local-first · portable · reviewable</text>

  <g transform="translate(828 70)" filter="url(#shadow)">
    <g transform="translate(0 24) rotate(-5 78 62)">
      <rect width="156" height="124" rx="18" fill="#fffaf4" stroke="#b7d8c6" stroke-width="2"/>
      <circle cx="32" cy="31" r="11" fill="#f09a62" opacity=".8"/>
      <rect x="54" y="23" width="70" height="9" rx="4.5" fill="#245f50" opacity=".7"/>
      <rect x="24" y="60" width="106" height="8" rx="4" fill="#9be5c1"/>
      <rect x="24" y="80" width="82" height="8" rx="4" fill="#dceee3"/>
    </g>
    <path d="M168 88h56" stroke="#245f50" stroke-width="4" stroke-linecap="round" stroke-dasharray="5 9"/>
    <g transform="translate(218 56)">
      <circle cx="36" cy="36" r="34" fill="#10231d"/>
      <circle cx="36" cy="36" r="19" fill="none" stroke="#9be5c1" stroke-width="5"/>
      <circle cx="59" cy="14" r="5" fill="#f09a62"/>
    </g>
    <path d="M290 88h50" stroke="#245f50" stroke-width="4" stroke-linecap="round" stroke-dasharray="5 9"/>
    <g transform="translate(338 19)">
      <rect width="110" height="76" rx="16" fill="url(#card)"/>
      <circle cx="26" cy="25" r="9" fill="#9be5c1"/>
      <rect x="44" y="20" width="42" height="8" rx="4" fill="#fffaf4" opacity=".9"/>
      <rect x="20" y="48" width="70" height="7" rx="3.5" fill="#9be5c1" opacity=".48"/>
      <rect x="28" y="94" width="110" height="76" rx="16" fill="#fffaf4" stroke="#b7d8c6" stroke-width="2"/>
      <circle cx="54" cy="119" r="9" fill="#f09a62" opacity=".8"/>
      <rect x="72" y="114" width="42" height="8" rx="4" fill="#245f50" opacity=".7"/>
      <rect x="48" y="142" width="70" height="7" rx="3.5" fill="#9be5c1"/>
    </g>
    <path d="M391 200c-98 45-219 42-297-9" fill="none" stroke="#f09a62" stroke-width="4" stroke-linecap="round"/>
    <path d="m97 191 13-1-6 12" fill="#f09a62"/>
  </g>
</svg>
